<svg width="618" height="292" viewBox="0 0 618 292" fill="none" xmlns="http://www.w3.org/2000/svg">
<g clip-path="url(#clip0_66_470)">
<path d="M364.42 199.911C364.42 199.911 364.296 199.911 364.234 199.911C364.202 199.911 364.171 199.911 364.14 199.911C363.938 199.911 363.721 199.883 363.518 199.883H346.558C332.536 199.883 321.172 210.151 321.172 222.821V252.852C321.172 265.522 332.536 275.79 346.558 275.79H363.518C363.736 275.79 363.938 275.776 364.14 275.762C364.171 275.762 364.202 275.762 364.234 275.762C364.296 275.762 364.358 275.762 364.42 275.762C377.727 275.046 388.283 265.073 388.283 252.866V222.835C388.283 210.628 377.727 200.655 364.42 199.939V199.911Z" fill="#080F1B"/>
<path d="M434.795 197.438H455.921C461.72 197.438 466.415 201.695 466.415 206.92V282.504C466.415 287.744 461.704 291.986 455.921 291.986H434.795C417.337 291.986 403.175 279.175 403.175 263.415V226.009C403.175 210.235 417.353 197.438 434.795 197.438Z" fill="#080F1B"/>
<path d="M92.885 199.911C92.885 199.911 92.7606 199.911 92.6984 199.911C92.6673 199.911 92.6362 199.911 92.6051 199.911C92.403 199.911 92.1854 199.883 91.9833 199.883H75.0231C61.0009 199.883 49.6371 210.151 49.6371 222.821V252.852C49.6371 265.522 61.0009 275.79 75.0231 275.79H91.9833C92.201 275.79 92.403 275.776 92.6051 275.762C92.6362 275.762 92.6673 275.762 92.6984 275.762C92.7606 275.762 92.8228 275.762 92.885 275.762C106.192 275.046 116.747 265.073 116.747 252.866V222.835C116.747 210.628 106.192 200.655 92.885 199.939V199.911Z" fill="#080F1B"/>
<path d="M211.591 197.438H232.718C238.516 197.438 243.211 201.695 243.211 206.92V282.504C243.211 287.744 238.501 291.986 232.718 291.986H211.591C194.133 291.986 179.971 279.175 179.971 263.415V226.009C179.971 210.235 194.149 197.438 211.591 197.438Z" fill="#080F1B"/>
<path d="M165.032 0H295.942V254.594H155.643V8.48413C155.643 3.80662 159.855 0 165.032 0Z" fill="#A5CBED"/>
<path d="M295.942 56.116V245.59H3.96411L4.47712 223.944L4.94348 204.377L5.16112 195.177C5.16112 186.496 10.0735 178.447 18.1883 173.812L49.6371 155.847L75.8781 86.6672C83.0291 68.3646 102.166 56.13 123.65 56.13H295.957L295.942 56.116Z" fill="#ED6E20"/>
<path d="M295.942 56.116V245.59H3.96411L4.47712 223.944L4.94348 204.377L5.16112 195.177C5.16112 191.595 6.00059 188.097 7.55515 184.923H113.125C113.125 180.751 109.379 177.352 104.746 177.352H28.3863C23.6604 177.352 21.8416 171.803 25.7901 169.472C36.3612 163.249 49.6371 155.833 49.6371 155.833L75.8781 86.6532C83.0291 68.3505 102.166 56.116 123.65 56.116H295.957H295.942Z" fill="#FBBA00"/>
<path d="M295.942 56.116V245.59H141.947V196.245C141.947 187.564 146.859 179.515 154.974 174.88L186.423 156.914L213.861 86.6532C221.012 68.3505 240.148 56.116 261.617 56.116H295.957H295.942Z" fill="#ED6E20"/>
<path d="M288.666 65.4711H259.036C241.206 65.4711 225.054 75.5986 219.488 90.9094C219.302 91.4291 219.115 91.9488 218.944 92.4967L194.74 159.92L158.69 179.993C152.751 183.294 149.191 189.193 149.316 195.486L149.937 224.647H193.574V223.987C193.465 204.701 210.798 189.039 232.143 189.137C253.269 189.235 270.338 204.729 270.338 223.818V224.689H288.635V65.4711H288.666Z" stroke="#172038" stroke-width="1.53" stroke-linecap="round" stroke-linejoin="round"/>
<path d="M49.6216 155.833L67.3436 155.973" stroke="#172038" stroke-width="1.53" stroke-linecap="round" stroke-linejoin="round"/>
<path d="M203.134 154.835H283.303" stroke="#172038" stroke-width="1.53" stroke-linecap="round" stroke-linejoin="round"/>
<path d="M278.888 169.064H261.835C259.394 169.064 257.42 167.28 257.42 165.075C257.42 162.87 259.394 161.086 261.835 161.086H278.888C281.329 161.086 283.303 162.87 283.303 165.075C283.303 167.28 281.329 169.064 278.888 169.064Z" fill="#172038"/>
<path d="M7.57068 184.923H144.916" stroke="#172038" stroke-width="1.53" stroke-linecap="round" stroke-linejoin="round"/>
<path d="M295.942 231.74V254.594H5.84515C2.62721 254.594 0 252.234 0 249.313V237.022C0 234.1 2.62721 231.74 5.84515 231.74H295.942Z" fill="#A5CBED"/>
<path d="M295.942 231.74V254.594H142.833C139.6 254.594 136.988 252.234 136.988 249.313V237.022C136.988 234.1 139.6 231.74 142.833 231.74H295.942Z" fill="#75A7DA"/>
<path d="M97.1134 233.271V253.063C97.1134 255.788 94.9837 258.063 92.1388 258.597H92.1077C91.7036 258.667 91.2683 258.71 90.8485 258.71H32.8479C29.3968 258.71 26.583 256.181 26.583 253.049V233.257C26.583 230.139 29.3812 227.596 32.8479 227.596H90.8641C91.2994 227.596 91.7191 227.639 92.1233 227.709H92.1544C94.9992 228.243 97.129 230.518 97.129 233.243L97.1134 233.271Z" fill="#3D70B6"/>
<path d="M97.1134 233.313V253.105C97.1134 255.83 94.9837 258.106 92.1388 258.639H92.1077C89.2629 258.106 87.1331 255.83 87.1331 253.105V233.313C87.1331 230.588 89.2629 228.313 92.1077 227.779H92.1388C94.9837 228.313 97.1134 230.588 97.1134 233.313Z" fill="#173F70"/>
<path d="M93.3825 223.93H28.977C27.6557 223.93 26.583 222.961 26.583 221.767C26.583 220.573 27.6557 219.604 28.977 219.604H93.3825C94.7038 219.604 95.7765 220.573 95.7765 221.767C95.7765 222.961 94.7038 223.93 93.3825 223.93Z" fill="#ED6E20"/>
<path d="M93.3825 214.154H28.977C27.6557 214.154 26.583 213.185 26.583 211.991C26.583 210.797 27.6557 209.828 28.977 209.828H93.3825C94.7038 209.828 95.7765 210.797 95.7765 211.991C95.7765 213.185 94.7038 214.154 93.3825 214.154Z" fill="#ED6E20"/>
<path d="M93.3825 204.195H28.977C27.6557 204.195 26.583 203.226 26.583 202.032C26.583 200.838 27.6557 199.869 28.977 199.869H93.3825C94.7038 199.869 95.7765 200.838 95.7765 202.032C95.7765 203.226 94.7038 204.195 93.3825 204.195Z" fill="#ED6E20"/>
<path d="M30.6715 254.018H80.8838" stroke="#172038" stroke-width="1.53" stroke-linecap="round" stroke-linejoin="round"/>
<path d="M120.758 204.364H132.107C133.988 204.364 135.527 205.754 135.527 207.454V212.848C135.527 218.972 130.023 223.93 123.261 223.93H111.338C109.457 223.93 107.918 222.54 107.918 220.84V215.966C107.918 209.561 113.669 204.364 120.758 204.364Z" fill="white"/>
<path d="M20.1005 215.966V220.545C20.1005 222.413 18.4216 223.93 16.354 223.93H4.47717L4.94354 204.364H7.25984C14.3486 204.364 20.1005 209.561 20.1005 215.966Z" fill="white"/>
<path d="M206.446 80.6694L195.983 107.92L181.915 144.595C180.702 147.77 177.375 149.905 173.644 149.905H57.1923L82.3451 83.5911C83.4954 80.6554 85.6096 78.1973 88.299 76.4836C90.9884 74.7558 94.2685 73.7726 97.7041 73.7726H201.005C204.953 73.7726 207.736 77.2983 206.43 80.6694H206.446Z" fill="#173F70"/>
<path d="M130.614 82.0881V138.583H71.1212L89.2162 88.7462C90.662 84.771 94.766 82.0881 99.3831 82.0881H130.614Z" fill="#3D70B6"/>
<path d="M195.983 107.92L181.915 144.595C180.702 147.77 177.375 149.905 173.644 149.905H138.154V120.477C138.154 113.552 144.372 107.92 152.052 107.92H195.983Z" fill="#172038"/>
<g style="mix-blend-mode:overlay" opacity="0.2">
<path d="M195.082 73.7726L83.0601 149.905H57.1923L60.6123 140.915L159.374 73.7726H195.082Z" fill="white"/>
<path d="M203.43 88.5215L195.983 107.92L194.786 111.066L137.641 149.905H113.125L203.43 88.5215Z" fill="white"/>
<path d="M130.645 73.7726L70.5926 114.592L75.1319 102.638L117.587 73.7726H130.645Z" fill="white"/>
</g>
<path d="M283.303 73.7726V149.905H203.134L214.623 122.697L219.628 110.827L228.971 88.676C232.749 79.7143 242.263 73.7866 252.865 73.7866H283.288L283.303 73.7726Z" fill="#173F70"/>
<path d="M278.95 113.482V149.905H214.623V122.697L219.628 110.827C222.038 109.015 225.131 107.934 228.52 107.934H272.81C276.214 107.934 278.95 110.42 278.95 113.496V113.482Z" fill="#172038"/>
<g style="mix-blend-mode:overlay" opacity="0.2">
<path d="M281.702 73.7726L216.799 117.542L219.628 110.827L221.587 106.164L269.639 73.7726H281.702Z" fill="white"/>
<path d="M283.303 90.5161V112.541L227.883 149.905H203.134L206.275 142.446L283.303 90.5161Z" fill="white"/>
<path d="M283.303 121.278V125.885L247.657 149.905H240.833L283.303 121.278Z" fill="white"/>
</g>
<path d="M229.484 139.061C228.8 140.704 227.728 142.404 226.049 144.019C222.722 147.236 217.996 148.992 213.115 149.132L197.274 149.568L193.387 157.883C192.641 159.471 190.698 160.285 188.879 159.752C187.309 159.316 186.314 157.996 186.314 156.577C186.314 156.184 186.392 155.776 186.547 155.397L191.227 144.357L193.03 140.086C195.579 134.046 202 130.071 209.151 130.071H222.473C222.753 130.071 223.048 130.071 223.328 130.113C228.007 130.591 231.179 134.945 229.469 139.061H229.484Z" fill="#ED6E20"/>
<path d="M295.942 17.4318V56.102H120.758V48.9523C120.758 31.5345 136.382 17.4318 155.643 17.4318H295.942Z" fill="#ED6E20"/>
<path d="M295.942 17.4318V56.102H198.953C198.953 52.0846 195.346 48.8258 190.9 48.8258H134.345C126.184 48.8258 120.883 41.0019 124.645 34.4562C130.459 24.3286 142.149 17.4177 155.627 17.4177H295.926L295.942 17.4318Z" fill="#FBBA00"/>
<path d="M295.942 17.4318V56.102H251.139C246.771 56.102 243.227 52.8993 243.227 48.9523C243.227 31.5345 258.85 17.4318 278.111 17.4318H295.957H295.942Z" fill="#ED6E20"/>
<path d="M242.263 25.1715H148.336C147.683 25.1715 147.139 24.6939 147.139 24.0899C147.139 23.4859 147.668 23.0083 148.336 23.0083H242.263C242.916 23.0083 243.46 23.4859 243.46 24.0899C243.46 24.6939 242.931 25.1715 242.263 25.1715Z" fill="#ED6E20"/>
<path d="M237.552 33.3746H136.755C136.102 33.3746 135.558 32.897 135.558 32.293C135.558 31.689 136.086 31.2114 136.755 31.2114H237.552C238.205 31.2114 238.749 31.689 238.749 32.293C238.749 32.897 238.221 33.3746 237.552 33.3746Z" fill="#ED6E20"/>
<path d="M233.65 41.2126H131.578C130.925 41.2126 130.381 40.735 130.381 40.131C130.381 39.527 130.91 39.0494 131.578 39.0494H233.65C234.303 39.0494 234.847 39.527 234.847 40.131C234.847 40.735 234.319 41.2126 233.65 41.2126Z" fill="#ED6E20"/>
<path d="M273.836 17.4318C273.836 17.4318 255.974 19.2438 247.781 33.3606" stroke="#172038" stroke-width="1.53" stroke-linecap="round" stroke-linejoin="round"/>
<path d="M295.942 0H519.052C524.757 0 529.406 4.18588 529.406 9.35501V254.594H295.942V0Z" fill="#3D70B6"/>
<path d="M506.398 17.4318H315.498V231.726H506.398V17.4318Z" fill="#A5CBED"/>
<path d="M364.311 17.4318H315.498V231.726H364.311V17.4318Z" fill="#75A7DA"/>
<path d="M461.611 17.4318H412.798V231.726H461.611V17.4318Z" fill="#75A7DA"/>
<path d="M364.311 17.4318V231.74" stroke="#172038" stroke-width="1.53" stroke-linecap="round" stroke-linejoin="round"/>
<path d="M412.798 17.4318V231.74" stroke="#172038" stroke-width="1.53" stroke-linecap="round" stroke-linejoin="round"/>
<path d="M461.611 17.4318V231.74" stroke="#172038" stroke-width="1.53" stroke-linecap="round" stroke-linejoin="round"/>
<path d="M529.654 223.874H295.942V231.726H529.654V223.874Z" fill="#2D6197"/>
<path d="M307.057 223.874L517.14 224.689" stroke="#172038" stroke-width="1.53" stroke-linecap="round" stroke-linejoin="round"/>
<path d="M295.942 231.74H529.654C532.903 231.74 535.531 234.114 535.531 237.05V249.284C535.531 252.22 532.903 254.594 529.654 254.594H295.942V231.74Z" fill="#75A7DA"/>
<path d="M295.942 231.74V254.594" stroke="#172038" stroke-width="1.53" stroke-linecap="round" stroke-linejoin="round"/>
<path d="M311.658 17.4318H509.476" stroke="#172038" stroke-width="1.53" stroke-linecap="round" stroke-linejoin="round"/>
<path d="M120.758 56.116H197.678" stroke="#172038" stroke-width="1.53" stroke-linecap="round" stroke-linejoin="round"/>
<path d="M273.836 56.116H295.942" stroke="#172038" stroke-width="1.53" stroke-linecap="round" stroke-linejoin="round"/>
<path d="M231.925 292C214.452 292 200.305 279.204 200.305 263.429V226.023C200.305 210.235 214.467 197.453 231.925 197.453C249.398 197.453 263.545 210.249 263.545 226.023V263.429C263.545 279.218 249.383 292 231.925 292Z" fill="#172038"/>
<path d="M235.563 262.811C230.168 262.811 225.784 258.85 225.784 253.976V235.449C225.784 230.574 230.168 226.613 235.563 226.613C240.957 226.613 245.341 230.574 245.341 235.449V253.976C245.341 258.85 240.957 262.811 235.563 262.811Z" fill="white"/>
<path d="M235.563 262.811C230.168 262.811 225.784 258.85 225.784 253.976V235.449C225.784 230.574 230.168 226.613 235.563 226.613C240.957 226.613 245.341 230.574 245.341 235.449V253.976C245.341 258.85 240.957 262.811 235.563 262.811Z" stroke="#75A7DA" stroke-width="4.6" stroke-miterlimit="10"/>
<path d="M455.144 197.438H455.129C437.666 197.438 423.509 210.23 423.509 226.009V263.429C423.509 279.208 437.666 292 455.129 292H455.144C472.607 292 486.764 279.208 486.764 263.429V226.009C486.764 210.23 472.607 197.438 455.144 197.438Z" fill="#191E38"/>
<path d="M458.766 262.811C453.372 262.811 448.988 258.85 448.988 253.976V235.449C448.988 230.574 453.372 226.613 458.766 226.613C464.161 226.613 468.545 230.574 468.545 235.449V253.976C468.545 258.85 464.161 262.811 458.766 262.811Z" fill="white"/>
<path d="M458.766 262.811C453.372 262.811 448.988 258.85 448.988 253.976V235.449C448.988 230.574 453.372 226.613 458.766 226.613C464.161 226.613 468.545 230.574 468.545 235.449V253.976C468.545 258.85 464.161 262.811 458.766 262.811Z" stroke="#75A7DA" stroke-width="4.6" stroke-miterlimit="10"/>
<path d="M538.267 250.408H465.14C463.449 250.408 462.078 251.647 462.078 253.175V289.233C462.078 290.761 463.449 292 465.14 292H538.267C539.958 292 541.329 290.761 541.329 289.233V253.175C541.329 251.647 539.958 250.408 538.267 250.408Z" fill="#ED6E20"/>
<path d="M494.894 250.408V292H465.14C463.446 292 462.078 290.764 462.078 289.233V253.189C462.078 251.658 463.446 250.422 465.14 250.422H494.894V250.408Z" fill="#FBBA00"/>
<path d="M482.256 250.408H472.431V264.132H482.256V250.408Z" fill="#BD6016"/>
<path d="M498.516 284.78H503.973" stroke="#172038" stroke-width="1.53" stroke-linecap="round" stroke-linejoin="round"/>
<path d="M498.516 288.053H507.564" stroke="#172038" stroke-width="1.53" stroke-linecap="round" stroke-linejoin="round"/>
<path d="M472.431 262.053H482.256" stroke="#172038" stroke-width="1.53" stroke-linecap="round" stroke-linejoin="round"/>
<path d="M494.894 250.408V261.28" stroke="#172038" stroke-width="1.53" stroke-linecap="round" stroke-linejoin="round"/>
<path d="M494.894 265.017V265.593" stroke="#172038" stroke-width="1.53" stroke-linecap="round" stroke-linejoin="round"/>
<path d="M541.329 271.197H462.078V277.855H541.329V271.197Z" fill="#EA5526"/>
<path d="M494.894 271.197H462.078V277.855H494.894V271.197Z" fill="#F59C18"/>
<path d="M588.914 198.085H496.915C494.786 198.085 493.06 199.644 493.06 201.568V246.925C493.06 248.849 494.786 250.408 496.915 250.408H588.914C591.043 250.408 592.769 248.849 592.769 246.925V201.568C592.769 199.644 591.043 198.085 588.914 198.085Z" fill="#ED6E20"/>
<path d="M534.349 198.085V250.408H496.915C494.785 250.408 493.06 248.849 493.06 246.925V201.582C493.06 199.658 494.785 198.099 496.915 198.099H534.349V198.085Z" fill="#FBBA00"/>
<path d="M518.462 198.085H506.103V215.362H518.462V198.085Z" fill="#BD6016"/>
<path d="M538.92 245.436H550.299" stroke="#172038" stroke-width="0.92" stroke-linecap="round" stroke-linejoin="round"/>
<path d="M506.103 212.735H518.446" stroke="#172038" stroke-width="1.53" stroke-linecap="round" stroke-linejoin="round"/>
<path d="M534.349 198.085V211.766" stroke="#172038" stroke-width="1.53" stroke-linecap="round" stroke-linejoin="round"/>
<path d="M534.349 216.106V217.188" stroke="#172038" stroke-width="1.53" stroke-linecap="round" stroke-linejoin="round"/>
<path d="M592.769 224.239H493.06V232.611H592.769V224.239Z" fill="#EA5526"/>
<path d="M534.349 224.239H493.06V232.611H534.349V224.239Z" fill="#F59C18"/>
<path d="M614.331 242.359H527.089C525.063 242.359 523.421 243.844 523.421 245.674V288.685C523.421 290.516 525.063 292 527.089 292H614.331C616.357 292 618 290.516 618 288.685V245.674C618 243.844 616.357 242.359 614.331 242.359Z" fill="#ED6E20"/>
<path d="M562.595 242.359V292H527.089C525.068 292 523.421 290.511 523.421 288.685V245.674C523.421 243.848 525.068 242.359 527.089 242.359H562.595Z" fill="#FBBA00"/>
<path d="M547.516 242.359H535.795V258.738H547.516V242.359Z" fill="#BD6016"/>
<path d="M566.917 283.375H573.415" stroke="#172038" stroke-width="1.53" stroke-linecap="round" stroke-linejoin="round"/>
<path d="M566.917 287.28H577.721" stroke="#172038" stroke-width="1.53" stroke-linecap="round" stroke-linejoin="round"/>
<path d="M535.795 256.266H547.501" stroke="#172038" stroke-width="1.53" stroke-linecap="round" stroke-linejoin="round"/>
<path d="M562.595 242.359V255.338" stroke="#172038" stroke-width="1.53" stroke-linecap="round" stroke-linejoin="round"/>
<path d="M562.595 259.524V260.479" stroke="#172038" stroke-width="1.53" stroke-linecap="round" stroke-linejoin="round"/>
<path d="M618 267.18H523.421V275.13H618V267.18Z" fill="#EA5526"/>
<path d="M562.595 267.18H523.421V275.13H562.595V267.18Z" fill="#F59C18"/>
<path d="M592.769 242.359H542.915" stroke="#172038" stroke-width="1.53" stroke-linecap="round" stroke-linejoin="round"/>
<path d="M605.89 146.155C605.89 132.094 593.283 120.702 577.721 120.702C562.16 120.702 549.553 132.094 549.553 146.155C549.553 158.122 558.709 168.165 571.021 170.876L577.721 181.018L584.422 170.876C596.749 168.165 605.89 158.122 605.89 146.155Z" fill="#172038"/>
<path d="M595.91 135.83H580.597L576.649 132.684C576.042 132.206 575.141 132.206 574.534 132.684L561.119 143.373C560.621 143.767 560.45 144.399 560.683 144.961C560.917 145.522 561.507 145.888 562.176 145.888H564.679V157.167C564.679 157.968 565.394 158.6 566.264 158.6H572.498C573.384 158.6 574.084 157.954 574.084 157.167V148.837H578.794V157.167C578.794 157.968 579.509 158.6 580.38 158.6H585.261C586.147 158.6 586.847 157.954 586.847 157.167V154.807H590.375C591.728 154.807 592.832 153.81 592.832 152.588C592.832 151.366 591.728 150.369 590.375 150.369H586.847V147.517H593.376C594.728 147.517 595.832 146.52 595.832 145.298C595.832 144.076 594.728 143.078 593.376 143.078H589.676L586.1 140.227H595.848C597.2 140.227 598.304 139.23 598.304 138.008C598.304 136.785 597.2 135.788 595.848 135.788L595.91 135.83Z" fill="#A5CBED"/>
</g>
<defs>
<clipPath id="clip0_66_470">
<rect width="618" height="292" fill="white"/>
</clipPath>
</defs>
</svg>
