<svg width="688" height="317" viewBox="0 0 688 317" fill="none" xmlns="http://www.w3.org/2000/svg">
<path d="M181.707 178.064C201.504 235.459 178.355 297.833 178.355 297.833C178.355 297.833 123.089 267.14 103.291 209.745C83.494 152.351 106.644 89.9767 106.644 89.9767C106.644 89.9767 161.91 120.67 181.707 178.064Z" fill="url(#paint0_linear_58_5)"/>
<g style="mix-blend-mode:multiply">
<path d="M176.034 179.91C176.192 179.352 175.915 178.751 175.399 178.579C174.883 178.408 174.328 178.708 174.169 179.266L157.486 235.308L143.957 196.566L158.498 140.116C158.637 139.558 158.339 138.979 157.823 138.828C157.308 138.678 156.772 139 156.633 139.558L142.807 193.239L127.274 148.766L133.88 123.246C134.019 122.688 133.721 122.108 133.206 121.936C132.69 121.786 132.154 122.108 131.995 122.666L126.104 145.439L109.163 96.9523C108.965 96.4157 108.429 96.0938 107.913 96.3299C107.417 96.5445 107.16 97.1455 107.338 97.6821L124.081 145.654L107.497 131.638C107.06 131.273 106.465 131.359 106.128 131.831C105.791 132.282 105.87 132.947 106.307 133.312L125.41 149.453L140.962 193.948L101.169 162.889C100.732 162.546 100.117 162.653 99.8 163.125C99.4826 163.598 99.5818 164.263 100.018 164.606L142.192 197.532L155.621 235.995L107.12 203.799C106.664 203.499 106.069 203.649 105.771 204.143C105.493 204.637 105.632 205.281 106.088 205.602L156.732 239.215L166.234 266.431L141.378 250.612C140.922 250.312 140.307 250.483 140.049 250.977C139.772 251.471 139.93 252.136 140.387 252.415L167.345 269.565L174.962 291.351C175.141 291.887 175.696 292.166 176.192 291.973C176.192 291.973 176.212 291.973 176.232 291.973C176.728 291.758 176.986 291.157 176.807 290.621L169.23 268.899L184.326 235.802C184.564 235.287 184.365 234.643 183.889 234.386C183.413 234.128 182.818 234.343 182.58 234.858L168.297 266.174L158.617 238.442L176.053 179.889L176.034 179.91Z" fill="#C1DDDC"/>
</g>
<path d="M109.421 211.913C157.922 243.529 175.637 307.942 175.637 307.942C175.637 307.942 114.717 321.1 66.2159 289.483C17.7145 257.867 0 193.454 0 193.454C0 193.454 60.9195 180.297 109.421 211.913Z" fill="url(#paint1_linear_58_5)"/>
<g style="mix-blend-mode:multiply">
<path d="M106.029 217.171C105.85 216.635 105.275 216.356 104.779 216.549C104.283 216.764 104.025 217.365 104.204 217.901L123.347 273.02L90.4767 251.793L69.4098 197.811C69.2115 197.274 68.6362 197.017 68.1402 197.253C67.6443 197.489 67.4063 198.09 67.6245 198.627L87.6599 249.968L49.9299 225.607L40.4279 201.181C40.2296 200.644 39.6543 200.387 39.1584 200.623C38.6625 200.859 38.4244 201.46 38.6426 201.997L47.113 223.782L5.99089 197.21C5.53464 196.91 4.91969 197.038 4.66181 197.575C4.38409 198.069 4.54279 198.713 4.99904 199.013L45.6848 225.306L24.6575 225.499C24.1219 225.499 23.6855 225.993 23.6855 226.573C23.6855 227.152 24.1418 227.624 24.6774 227.624L48.9182 227.41L86.668 251.793L37.6508 254.261C37.1152 254.283 36.6986 254.776 36.7184 255.356C36.7383 255.935 37.1945 256.386 37.7301 256.365L89.6832 253.767L122.295 274.845L65.7995 282.293C65.2639 282.357 64.887 282.894 64.9465 283.473C65.006 284.053 65.5019 284.461 66.0375 284.396L125.013 276.626L148.103 291.544L119.538 295.901C119.002 295.987 118.625 296.523 118.705 297.103C118.784 297.682 119.28 298.09 119.816 298.004L150.781 293.282L169.269 305.216C169.726 305.517 170.301 305.367 170.598 304.873C170.598 304.873 170.598 304.873 170.598 304.851C170.876 304.358 170.717 303.714 170.261 303.413L151.833 291.522L144.632 255.463C144.513 254.884 143.997 254.54 143.481 254.647C142.965 254.755 142.628 255.334 142.727 255.892L149.551 290.041L126.025 274.845L106.029 217.257V217.171Z" fill="#C1DDDC"/>
</g>
<path d="M505.943 178.064C486.146 235.459 509.295 297.833 509.295 297.833C509.295 297.833 564.561 267.14 584.359 209.745C604.156 152.351 581.006 89.9767 581.006 89.9767C581.006 89.9767 525.74 120.67 505.943 178.064Z" fill="url(#paint2_linear_58_5)"/>
<g style="mix-blend-mode:multiply">
<path d="M511.597 179.91C511.438 179.352 511.716 178.751 512.231 178.579C512.747 178.408 513.303 178.708 513.461 179.266L530.144 235.308L543.673 196.566L529.132 140.116C528.994 139.558 529.291 138.979 529.807 138.828C530.323 138.678 530.858 139 530.997 139.558L544.824 193.239L560.356 148.766L553.75 123.246C553.611 122.688 553.909 122.108 554.425 121.936C554.94 121.786 555.476 122.108 555.635 122.666L561.526 145.439L578.467 96.9523C578.665 96.4157 579.201 96.0938 579.717 96.3299C580.213 96.5445 580.471 97.1455 580.292 97.6821L563.55 145.654L580.133 131.638C580.57 131.273 581.165 131.359 581.502 131.831C581.839 132.282 581.76 132.947 581.324 133.312L562.221 149.453L546.668 193.948L586.461 162.889C586.898 162.546 587.513 162.653 587.83 163.125C588.148 163.598 588.048 164.263 587.612 164.606L545.439 197.532L532.009 235.995L580.51 203.799C580.967 203.499 581.562 203.649 581.859 204.143C582.137 204.637 581.998 205.281 581.542 205.602L530.898 239.215L521.396 266.431L546.252 250.612C546.708 250.312 547.323 250.483 547.581 250.977C547.859 251.471 547.7 252.136 547.244 252.415L520.285 269.565L512.668 291.351C512.489 291.887 511.934 292.166 511.438 291.973C511.438 291.973 511.418 291.973 511.398 291.973C510.902 291.758 510.644 291.157 510.823 290.621L518.401 268.899L503.305 235.802C503.067 235.287 503.265 234.643 503.741 234.386C504.217 234.128 504.812 234.343 505.05 234.858L519.333 266.174L529.013 238.442L511.577 179.889L511.597 179.91Z" fill="#C1DDDC"/>
</g>
<path d="M578.229 211.913C529.728 243.529 512.013 307.942 512.013 307.942C512.013 307.942 572.933 321.1 621.434 289.483C669.936 257.867 687.65 193.454 687.65 193.454C687.65 193.454 626.731 180.297 578.229 211.913Z" fill="url(#paint3_linear_58_5)"/>
<g style="mix-blend-mode:multiply">
<path d="M581.601 217.171C581.78 216.635 582.355 216.356 582.851 216.549C583.347 216.764 583.605 217.365 583.426 217.901L564.284 273.02L597.154 251.793L618.22 197.811C618.419 197.274 618.994 197.017 619.49 197.253C619.986 197.489 620.224 198.09 620.006 198.627L599.97 249.968L637.7 225.607L647.202 201.181C647.401 200.644 647.976 200.387 648.472 200.623C648.968 200.859 649.206 201.46 648.988 201.997L640.517 223.782L681.639 197.21C682.096 196.91 682.711 197.038 682.969 197.575C683.246 198.069 683.088 198.713 682.631 199.013L641.946 225.306L662.973 225.499C663.508 225.499 663.945 225.993 663.945 226.573C663.945 227.152 663.489 227.624 662.953 227.624L638.712 227.41L600.962 251.793L649.98 254.261C650.515 254.283 650.932 254.776 650.912 255.356C650.892 255.935 650.436 256.386 649.9 256.365L597.947 253.767L565.335 274.845L621.831 282.293C622.366 282.357 622.743 282.894 622.684 283.473C622.624 284.053 622.128 284.461 621.593 284.396L562.617 276.626L539.527 291.544L568.092 295.901C568.628 295.987 569.005 296.523 568.926 297.103C568.846 297.682 568.35 298.09 567.815 298.004L536.849 293.282L518.361 305.216C517.905 305.517 517.329 305.367 517.032 304.873C517.032 304.873 517.032 304.873 517.032 304.851C516.754 304.358 516.913 303.714 517.369 303.413L535.798 291.522L542.999 255.463C543.118 254.884 543.633 254.54 544.149 254.647C544.665 254.755 545.002 255.334 544.903 255.892L538.079 290.041L561.606 274.845L581.601 217.257V217.171Z" fill="#C1DDDC"/>
</g>
<path d="M465.575 313.051C465.575 315.219 384.838 317 285.236 317C185.635 317 104.898 315.24 104.898 313.051C104.898 310.861 185.635 309.101 285.236 309.101C384.838 309.101 465.575 310.861 465.575 313.051Z" fill="#B8C4D2"/>
<path d="M531.037 0H397.93C393.373 0 389.678 3.99764 389.678 8.92897V303.649C389.678 308.581 393.373 312.578 397.93 312.578H531.037C535.594 312.578 539.289 308.581 539.289 303.649V8.92897C539.289 3.99764 535.594 0 531.037 0Z" fill="url(#paint4_linear_58_5)"/>
<path d="M533.338 8.90754V303.628C533.338 305.002 532.306 306.118 531.037 306.118H397.911C396.641 306.118 395.61 305.002 395.61 303.628V8.90754C395.61 7.53385 396.641 6.41772 397.911 6.41772L531.037 6.41772C532.306 6.41772 533.338 7.53385 533.338 8.90754Z" fill="#D9E1EE"/>
<mask id="mask0_58_5" style="mask-type:luminance" maskUnits="userSpaceOnUse" x="395" y="6" width="139" height="301">
<path d="M533.338 8.90754V303.628C533.338 305.002 532.306 306.118 531.037 306.118H397.911C396.641 306.118 395.61 305.002 395.61 303.628V8.90754C395.61 7.53385 396.641 6.41772 397.911 6.41772L531.037 6.41772C532.306 6.41772 533.338 7.53385 533.338 8.90754Z" fill="white"/>
</mask>
<g mask="url(#mask0_58_5)">
<path d="M529.371 83.9452C526.038 81.3266 522.844 78.8368 519.908 76.4757C513.223 71.1312 506.419 67.0745 499.536 64.2842L471.962 -1.97474L466.051 0.901417L491.303 61.5798C478.806 58.4031 466.19 59.4334 453.871 64.7135L422.191 -12.0842L416.28 -9.20807L447.94 67.5253L417.708 82.271L390.293 16.3983L387.873 39.0213L407.869 87.0574L377.637 101.803L357.642 53.7669L351.73 56.6431L410.507 197.832L413.463 196.394C419.593 193.411 434.411 193.046 452.581 194.441L457.561 206.418C449.527 212.922 432.804 228.612 431.356 247.757L416.22 255.141L336.654 64.0052L332.726 65.9155L412.292 257.051L389.658 268.084L310.092 76.9479L306.164 78.8582L412.193 332.54L416.121 330.629L391.444 272.334L414.078 261.301L443.952 331.595L447.88 329.685L418.006 259.391L431.356 252.887C431.673 257.438 432.943 262.138 435.403 266.946C443.794 283.173 456.132 284.332 465.277 279.889C465.614 279.717 465.932 279.567 466.249 279.395C472.597 275.94 477.973 269.372 480.512 261.494L506.558 319.425L516.397 314.639L464.92 195.6C477.398 196.952 490.807 198.949 503.682 201.353L539.368 285.641L545.28 282.765L511.418 202.855C528.656 206.332 544.407 210.496 555.079 214.703L561.11 229.191L567.021 226.315L538.039 156.708C547.601 158.339 557.777 158.575 568.549 155.227C570.136 154.733 571.604 154.153 572.913 153.531C577.932 151.084 580.828 147.607 581.542 143.143C583.982 128.161 560.435 108.35 529.41 84.0095L529.371 83.9452ZM459.366 210.754L467.439 230.136L435.978 245.461C438.458 229.835 452.026 216.785 459.366 210.732V210.754ZM464.285 275.188C454.684 280.447 445.262 276.498 439.152 264.65C436.712 259.927 435.66 255.291 435.601 250.784L469.225 234.385L477.596 254.476C476.624 263.533 471.109 271.454 464.305 275.167L464.285 275.188ZM494.735 69.8219L526.851 146.942C524.253 146.212 521.694 145.461 519.194 144.709C507.193 141.125 495.786 137.734 485.67 141.103L456.529 71.1312C469.225 65.7223 482.02 65.293 494.735 69.8219ZM450.598 73.9215L479.679 143.765L449.447 158.511L420.366 88.6672L450.598 73.9215ZM410.527 93.4537L439.608 163.297L409.376 178.043L380.295 108.199L410.527 93.4537ZM413.86 188.839L412.015 184.396L442.246 169.65L449.527 187.122C434.331 186.156 421.457 186.542 413.86 188.818V188.839ZM461.786 188.131L452.105 164.864L482.337 150.118L500.428 193.583C487.514 191.265 474.184 189.354 461.786 188.131ZM551.429 205.967C540.063 202.104 524.669 198.262 508.145 195.042L488.367 147.543C496.52 145.225 506.32 148.144 517.488 151.47C521.594 152.694 525.84 153.96 530.243 155.034L551.449 205.967H551.429ZM575.135 141.898C574.678 144.666 571.861 146.877 566.724 148.466C555.555 151.943 544.824 151.084 534.766 148.916L503.463 73.7283C507.669 75.9821 511.874 78.7938 516.06 82.1422C519.016 84.5032 522.209 87.0145 525.562 89.6545C546.073 105.731 577.059 130.05 575.135 141.898Z" fill="#EDF4FC"/>
</g>
<path d="M464.484 19.9184C466.916 19.9184 468.887 17.785 468.887 15.1534C468.887 12.5218 466.916 10.3884 464.484 10.3884C462.051 10.3884 460.08 12.5218 460.08 15.1534C460.08 17.785 462.051 19.9184 464.484 19.9184Z" fill="url(#paint5_linear_58_5)"/>
<path style="mix-blend-mode:screen" d="M464.484 18.8881C466.39 18.8881 467.935 17.216 467.935 15.1534C467.935 13.0908 466.39 11.4187 464.484 11.4187C462.577 11.4187 461.032 13.0908 461.032 15.1534C461.032 17.216 462.577 18.8881 464.484 18.8881Z" fill="url(#paint6_linear_58_5)"/>
<path d="M475.156 61.3436C462.579 61.3436 452.383 72.3761 452.383 85.9842C452.383 102.468 475.156 128.762 475.156 128.762C475.156 128.762 497.929 102.747 497.929 85.9842C497.929 72.3761 487.733 61.3436 475.156 61.3436ZM475.156 101.76C467.102 101.76 460.556 94.6985 460.556 85.9627C460.556 77.2269 467.082 70.1653 475.156 70.1653C483.23 70.1653 489.756 77.2269 489.756 85.9627C489.756 94.6985 483.23 101.76 475.156 101.76Z" fill="url(#paint7_linear_58_5)"/>
<path d="M395.629 264.735H168.991V290.943H395.629V264.735Z" fill="url(#paint8_linear_58_5)"/>
<path d="M142.112 260.55H182.56V305.023C182.56 309.466 179.227 313.051 175.141 313.051H149.551C145.445 313.051 142.132 309.445 142.132 305.023V260.55H142.112Z" fill="url(#paint9_linear_58_5)"/>
<path d="M420.922 313.051H395.332C391.226 313.051 387.913 309.445 387.913 305.023V260.55H428.36V305.023C428.36 309.466 425.028 313.051 420.941 313.051H420.922Z" fill="url(#paint10_linear_58_5)"/>
<path d="M175.319 159.82L151.277 158.532C146.635 158.275 142.985 154.132 142.985 149.088C142.985 143.873 146.893 139.644 151.713 139.644H159.49C163.893 139.644 167.881 142.434 169.666 146.792L171.689 151.685H182.957L175.319 159.82Z" fill="url(#paint11_linear_58_5)"/>
<path d="M395.133 159.82L419.176 158.532C423.818 158.275 427.468 154.132 427.468 149.088C427.468 143.873 423.56 139.644 418.739 139.644H410.963C406.559 139.644 402.572 142.434 400.787 146.792L398.764 151.685H387.496L395.133 159.82Z" fill="url(#paint12_linear_58_5)"/>
<path d="M432.566 207.384V258.039C432.566 261.258 431.872 264.435 430.602 267.354L427.924 273.45C424.611 280.898 417.668 285.641 410.011 285.641H373.948C371.488 285.641 369.068 285.148 366.767 284.182L361.192 281.864C355.698 279.545 349.885 278.365 343.994 278.365H226.519C220.608 278.365 214.775 279.545 209.281 281.864L203.706 284.182C201.425 285.148 198.985 285.641 196.525 285.641H160.462C152.824 285.641 145.862 280.919 142.569 273.45L139.851 267.354C138.562 264.456 137.907 261.258 137.907 258.039V207.384C137.907 201.889 139.851 196.566 143.362 192.574L150.742 184.203C150.742 184.203 150.742 184.181 150.761 184.139L151.138 183.731L175.379 156.15C175.379 156.15 183.73 130.243 201.564 101.996C201.564 101.996 213.506 96.2225 282.717 95.9649L287.756 95.9435C357.007 96.2225 368.949 101.996 368.949 101.996C386.782 130.221 395.134 156.15 395.134 156.15L421.338 185.984H421.358L427.131 192.574C430.622 196.566 432.586 201.889 432.586 207.384H432.566Z" fill="url(#paint13_linear_58_5)"/>
<path d="M432.566 207.384V258.039C432.566 261.258 431.872 264.435 430.602 267.354L427.924 273.45C424.611 280.898 417.668 285.641 410.011 285.641H373.948C371.488 285.641 369.068 285.147 366.767 284.182L361.192 281.864C355.698 279.545 349.885 278.365 343.994 278.365H226.519C220.607 278.365 214.775 279.545 209.281 281.864L203.706 284.182C201.425 285.147 198.985 285.641 196.525 285.641H160.462C152.824 285.641 145.862 280.919 142.569 273.45L139.851 267.354C138.562 264.456 137.907 261.258 137.907 258.039V207.384C137.907 201.889 139.851 196.566 143.362 192.574L150.742 184.203C147.706 189.955 197.497 210.324 220.389 212.042C243.936 213.78 327.212 212.964 350.104 212.042C372.995 211.076 415.526 195.708 421.318 186.006H421.338L427.111 192.595C430.602 196.588 432.566 201.911 432.566 207.405V207.384Z" fill="url(#paint14_linear_58_5)"/>
<path d="M388.27 155.677C380.633 155.205 368.155 154.776 354.428 154.368C349.489 154.239 344.331 154.089 339.233 153.96C322.55 153.552 305.946 153.273 295.254 153.123C290.692 153.059 287.2 153.037 285.217 153.037C273.334 153.037 205.432 154.239 182.163 155.656C185.714 142.134 197.815 120.369 204.262 108.242C208.745 106.632 214.954 105.452 222.294 104.615C229.356 103.778 237.449 103.263 246.019 102.941C252.684 102.683 259.587 102.533 266.57 102.468C272.818 102.383 279.107 102.383 285.236 102.383C288.371 102.383 291.584 102.383 294.818 102.404C297.099 102.404 299.42 102.404 301.701 102.425C320.765 102.576 339.768 103.198 353.456 105.28C358.514 106.053 362.859 107.019 366.211 108.221C368.413 112.363 371.289 117.643 374.305 123.374C376.705 128.01 379.125 132.861 381.367 137.626C383.073 141.34 384.66 144.945 385.909 148.315C386.901 150.912 387.734 153.381 388.31 155.613L388.27 155.677Z" fill="url(#paint15_linear_58_5)"/>
<path d="M350.083 211.999C350.083 211.999 310.271 214.51 285.216 214.51C256.77 214.51 220.349 211.999 220.349 211.999C220.349 211.999 198.826 220.778 198.826 230.758C198.826 238.442 211.284 259.176 217.037 268.341C218.802 271.153 221.718 272.806 224.833 272.806H345.581C348.715 272.806 351.631 271.132 353.376 268.341C359.129 259.176 371.587 238.442 371.587 230.758C371.587 220.778 350.064 211.999 350.064 211.999H350.083Z" fill="url(#paint16_linear_58_5)"/>
<path d="M168.158 265.68C168.158 271.046 164.131 275.403 159.172 275.403C154.213 275.403 150.186 271.046 150.186 265.68C150.186 260.314 154.213 255.957 159.172 255.957C164.131 255.957 168.158 260.314 168.158 265.68Z" fill="url(#paint17_linear_58_5)"/>
<path d="M165.004 265.68C165.004 269.178 162.386 272.012 159.152 272.012C155.919 272.012 153.301 269.178 153.301 265.68C153.301 262.181 155.919 259.348 159.152 259.348C162.386 259.348 165.004 262.181 165.004 265.68Z" fill="url(#paint18_linear_58_5)"/>
<path d="M402.314 265.68C402.314 271.046 406.341 275.403 411.301 275.403C416.26 275.403 420.287 271.046 420.287 265.68C420.287 260.314 416.26 255.957 411.301 255.957C406.341 255.957 402.314 260.314 402.314 265.68Z" fill="url(#paint19_linear_58_5)"/>
<path d="M405.449 265.68C405.449 269.178 408.067 272.012 411.301 272.012C414.534 272.012 417.153 269.178 417.153 265.68C417.153 262.181 414.534 259.348 411.301 259.348C408.067 259.348 405.449 262.181 405.449 265.68Z" fill="url(#paint20_linear_58_5)"/>
<path d="M154.987 190.041C150.642 189.462 145.663 192.917 143.322 199.593C141.993 203.37 141.954 208.65 142.271 213.63C153.459 225.736 179.584 226.036 186.448 225.285C193.292 224.534 208.804 215.154 210.491 211.076C212.177 206.998 161.711 190.964 154.987 190.063V190.041Z" fill="url(#paint21_linear_58_5)"/>
<path style="mix-blend-mode:screen" d="M160.561 216.313C165.458 216.313 169.428 212.017 169.428 206.719C169.428 201.42 165.458 197.124 160.561 197.124C155.663 197.124 151.693 201.42 151.693 206.719C151.693 212.017 155.663 216.313 160.561 216.313Z" fill="url(#paint22_radial_58_5)"/>
<path style="mix-blend-mode:screen" d="M180.795 220.005C184.881 220.005 188.194 216.42 188.194 211.999C188.194 207.577 184.881 203.993 180.795 203.993C176.708 203.993 173.395 207.577 173.395 211.999C173.395 216.42 176.708 220.005 180.795 220.005Z" fill="url(#paint23_radial_58_5)"/>
<path d="M415.466 190.041C419.811 189.462 424.79 192.917 427.131 199.593C428.46 203.37 428.499 208.65 428.182 213.63C416.994 225.736 390.869 226.036 384.005 225.285C377.161 224.534 361.649 215.154 359.963 211.076C358.276 206.998 408.742 190.964 415.466 190.063V190.041Z" fill="url(#paint24_linear_58_5)"/>
<path style="mix-blend-mode:screen" d="M409.892 216.313C414.789 216.313 418.759 212.017 418.759 206.719C418.759 201.42 414.789 197.124 409.892 197.124C404.995 197.124 401.025 201.42 401.025 206.719C401.025 212.017 404.995 216.313 409.892 216.313Z" fill="url(#paint25_radial_58_5)"/>
<path style="mix-blend-mode:screen" d="M389.678 220.005C393.765 220.005 397.078 216.42 397.078 211.999C397.078 207.577 393.765 203.993 389.678 203.993C385.592 203.993 382.279 207.577 382.279 211.999C382.279 216.42 385.592 220.005 389.678 220.005Z" fill="url(#paint26_radial_58_5)"/>
<path d="M320.249 246.641H251.454C250.895 246.641 250.442 247.132 250.442 247.736V264.607C250.442 265.211 250.895 265.701 251.454 265.701H320.249C320.808 265.701 321.26 265.211 321.26 264.607V247.736C321.26 247.132 320.808 246.641 320.249 246.641Z" fill="url(#paint27_linear_58_5)"/>
<path d="M291.683 232.861H278.789C275.973 232.861 273.671 230.393 273.671 227.324C273.671 224.276 275.953 221.786 278.789 221.786H291.683C294.5 221.786 296.801 224.254 296.801 227.324C296.801 230.372 294.52 232.861 291.683 232.861Z" fill="url(#paint28_linear_58_5)"/>
<path style="mix-blend-mode:screen" d="M382.259 148.53C372.162 150.032 354.725 151.771 335.146 149.796C307.97 147.006 279.92 122.559 270.438 105.538C276.31 105.452 282.201 105.452 287.934 105.452C290.89 105.452 293.885 105.452 296.901 105.473C299.043 105.473 301.205 105.473 303.348 105.495C321.221 105.645 339.015 106.225 351.849 108.156C356.59 108.886 360.657 109.788 363.791 110.904C365.854 114.789 368.552 119.747 371.369 125.113C373.61 129.47 375.892 133.999 377.974 138.463C379.581 141.941 381.049 145.332 382.239 148.487L382.259 148.53Z" fill="url(#paint29_linear_58_5)"/>
<path style="mix-blend-mode:screen" d="M173.376 162.331C163.04 173.514 154.253 180.447 157.724 184.181C161.196 187.916 210.57 209.509 236.556 209.509C262.543 209.509 332.449 214.403 352.305 207.727C372.162 201.031 410.606 190.234 413.82 186.779C417.014 183.323 395.649 162.31 395.649 162.31H173.395L173.376 162.331Z" fill="url(#paint30_linear_58_5)"/>
<path style="mix-blend-mode:screen" d="M415.208 156.279H419.434C423.262 156.279 426.377 152.909 426.377 148.766C426.377 144.624 423.262 141.254 419.434 141.254H415.208C411.38 141.254 408.266 144.624 408.266 148.766C408.266 152.909 411.38 156.279 415.208 156.279Z" fill="url(#paint31_linear_58_5)"/>
<path style="mix-blend-mode:screen" d="M151.198 156.279H155.423C159.251 156.279 162.366 152.909 162.366 148.766C162.366 144.624 159.251 141.254 155.423 141.254H151.198C147.369 141.254 144.255 144.624 144.255 148.766C144.255 152.909 147.369 156.279 151.198 156.279Z" fill="url(#paint32_linear_58_5)"/>
<path d="M271.37 66.2591C271.013 66.0659 270.676 65.8083 270.378 65.4864C268.91 63.898 268.91 61.3009 270.378 59.7126C274.782 54.9691 280.614 52.3934 286.823 52.4363C293.012 52.4792 298.825 55.1408 303.189 59.9487C304.657 61.5585 304.617 64.1341 303.129 65.7225C301.642 67.2893 299.261 67.2893 297.793 65.6581C294.857 62.417 290.949 60.6355 286.764 60.5926C282.598 60.5711 278.65 62.3097 275.695 65.5078C274.524 66.7742 272.759 67.0318 271.35 66.2591H271.37Z" fill="#B8C4D2"/>
<path d="M259.766 53.6596C259.409 53.4664 259.071 53.2088 258.774 52.8869C257.306 51.2985 257.306 48.7014 258.774 47.1131C266.312 38.9997 276.31 34.5567 286.923 34.6426C297.555 34.707 307.494 39.2788 314.932 47.4994C316.381 49.1092 316.361 51.6849 314.873 53.2732C313.385 54.8401 311.005 54.8186 309.537 53.2088C303.526 46.555 295.472 42.8632 286.863 42.7989C278.254 42.7345 270.18 46.3189 264.07 52.9083C262.9 54.1747 261.134 54.4323 259.726 53.6596H259.766Z" fill="#B8C4D2"/>
<path d="M248.637 41.597C248.28 41.4038 247.943 41.1462 247.645 40.8243C246.177 39.2359 246.177 36.6388 247.645 35.0505C258.179 23.6961 272.164 17.493 287.042 17.5789C301.919 17.6862 315.825 24.0824 326.22 35.5656C327.668 37.1754 327.648 39.7511 326.16 41.3394C324.672 42.9063 322.292 42.8848 320.824 41.275C311.838 31.3372 299.817 25.821 286.982 25.7352C274.128 25.6493 262.047 30.9938 252.962 40.8243C251.791 42.0906 250.026 42.3482 248.617 41.5755L248.637 41.597Z" fill="#B8C4D2"/>
<path style="mix-blend-mode:screen" d="M180.795 271.132C210.977 271.132 235.446 244.657 235.446 211.999C235.446 179.34 210.977 152.866 180.795 152.866C150.612 152.866 126.144 179.34 126.144 211.999C126.144 244.657 150.612 271.132 180.795 271.132Z" fill="url(#paint33_radial_58_5)"/>
<path style="mix-blend-mode:screen" d="M210.897 219.724C214.852 201.721 204.57 183.658 187.931 179.379C171.293 175.1 154.599 186.226 150.645 204.229C146.69 222.232 156.972 240.295 173.61 244.573C190.249 248.852 206.943 237.727 210.897 219.724Z" fill="url(#paint34_radial_58_5)"/>
<path style="mix-blend-mode:screen" d="M389.678 271.132C419.861 271.132 444.329 244.657 444.329 211.999C444.329 179.34 419.861 152.866 389.678 152.866C359.495 152.866 335.027 179.34 335.027 211.999C335.027 244.657 359.495 271.132 389.678 271.132Z" fill="url(#paint35_radial_58_5)"/>
<path style="mix-blend-mode:screen" d="M401.421 242.958C417.246 235.942 424.818 216.374 418.334 199.251C411.851 182.128 393.766 173.935 377.941 180.95C362.116 187.966 354.543 207.534 361.027 224.657C367.511 241.78 385.596 249.973 401.421 242.958Z" fill="url(#paint36_radial_58_5)"/>
<defs>
<linearGradient id="paint0_linear_58_5" x1="140.267" y1="91.1572" x2="143.844" y2="231.668" gradientUnits="userSpaceOnUse">
<stop stop-color="#C1DEBA"/>
<stop offset="1" stop-color="#39A1A2"/>
</linearGradient>
<linearGradient id="paint1_linear_58_5" x1="-3.40424" y1="191.04" x2="182.405" y2="294.468" gradientUnits="userSpaceOnUse">
<stop stop-color="#C1DEBA"/>
<stop offset="1" stop-color="#39A1A2"/>
</linearGradient>
<linearGradient id="paint2_linear_58_5" x1="547.383" y1="91.1572" x2="543.806" y2="231.668" gradientUnits="userSpaceOnUse">
<stop stop-color="#C1DEBA"/>
<stop offset="1" stop-color="#39A1A2"/>
</linearGradient>
<linearGradient id="paint3_linear_58_5" x1="691.047" y1="191.205" x2="505.22" y2="294.643" gradientUnits="userSpaceOnUse">
<stop stop-color="#C1DEBA"/>
<stop offset="1" stop-color="#39A1A2"/>
</linearGradient>
<linearGradient id="paint4_linear_58_5" x1="389.678" y1="156.279" x2="539.289" y2="156.279" gradientUnits="userSpaceOnUse">
<stop stop-color="#2C3F63"/>
<stop offset="1" stop-color="#141A2E"/>
</linearGradient>
<linearGradient id="paint5_linear_58_5" x1="460.08" y1="15.1534" x2="468.887" y2="15.1534" gradientUnits="userSpaceOnUse">
<stop stop-color="#2C3F63"/>
<stop offset="1" stop-color="#141A2E"/>
</linearGradient>
<linearGradient id="paint6_linear_58_5" x1="464.484" y1="11.4831" x2="464.484" y2="18.6735" gradientUnits="userSpaceOnUse">
<stop stop-color="#2C3F63"/>
<stop offset="1" stop-color="#010101"/>
</linearGradient>
<linearGradient id="paint7_linear_58_5" x1="475.156" y1="60.0558" x2="475.156" y2="128.611" gradientUnits="userSpaceOnUse">
<stop stop-color="#3862AC"/>
<stop offset="1" stop-color="#324E9D"/>
</linearGradient>
<linearGradient id="paint8_linear_58_5" x1="282.32" y1="291.952" x2="282.32" y2="277.056" gradientUnits="userSpaceOnUse">
<stop stop-color="#2C3F63"/>
<stop offset="1" stop-color="#141A2E"/>
</linearGradient>
<linearGradient id="paint9_linear_58_5" x1="162.326" y1="312.128" x2="162.326" y2="278.472" gradientUnits="userSpaceOnUse">
<stop stop-color="#2C3F63"/>
<stop offset="1" stop-color="#141A2E"/>
</linearGradient>
<linearGradient id="paint10_linear_58_5" x1="408.127" y1="312.128" x2="408.127" y2="278.472" gradientUnits="userSpaceOnUse">
<stop stop-color="#2C3F63"/>
<stop offset="1" stop-color="#141A2E"/>
</linearGradient>
<linearGradient id="paint11_linear_58_5" x1="163.239" y1="139.472" x2="162.705" y2="158.401" gradientUnits="userSpaceOnUse">
<stop stop-color="#F2BA13"/>
<stop offset="1" stop-color="#EE7512"/>
</linearGradient>
<linearGradient id="paint12_linear_58_5" x1="407.214" y1="139.472" x2="407.748" y2="158.401" gradientUnits="userSpaceOnUse">
<stop stop-color="#F2BA13"/>
<stop offset="1" stop-color="#EE7512"/>
</linearGradient>
<linearGradient id="paint13_linear_58_5" x1="285.236" y1="95.3854" x2="285.236" y2="210.003" gradientUnits="userSpaceOnUse">
<stop stop-color="#F2BA13"/>
<stop offset="0.52" stop-color="#EE7512"/>
<stop offset="1" stop-color="#F2BA13"/>
</linearGradient>
<linearGradient id="paint14_linear_58_5" x1="139.553" y1="234.901" x2="426.397" y2="234.901" gradientUnits="userSpaceOnUse">
<stop stop-color="#EE7512"/>
<stop offset="0.02" stop-color="#EE7A12"/>
<stop offset="0.14" stop-color="#EF9612"/>
<stop offset="0.27" stop-color="#F1AA12"/>
<stop offset="0.39" stop-color="#F1B612"/>
<stop offset="0.52" stop-color="#F2BA13"/>
<stop offset="0.63" stop-color="#F1B512"/>
<stop offset="0.75" stop-color="#F1A912"/>
<stop offset="0.87" stop-color="#EF9412"/>
<stop offset="0.99" stop-color="#EE7712"/>
<stop offset="1" stop-color="#EE7512"/>
</linearGradient>
<linearGradient id="paint15_linear_58_5" x1="351.651" y1="95.5785" x2="207.852" y2="176.322" gradientUnits="userSpaceOnUse">
<stop stop-color="#2C3F63"/>
<stop offset="1" stop-color="#141A2E"/>
</linearGradient>
<linearGradient id="paint16_linear_58_5" x1="285.613" y1="272.312" x2="285.056" y2="219.684" gradientUnits="userSpaceOnUse">
<stop stop-color="#2C3F63"/>
<stop offset="1" stop-color="#141A2E"/>
</linearGradient>
<linearGradient id="paint17_linear_58_5" x1="159.252" y1="275.06" x2="159.066" y2="258.576" gradientUnits="userSpaceOnUse">
<stop stop-color="#2C3F63"/>
<stop offset="1" stop-color="#141A2E"/>
</linearGradient>
<linearGradient id="paint18_linear_58_5" x1="159.212" y1="271.775" x2="159.096" y2="261.065" gradientUnits="userSpaceOnUse">
<stop stop-color="#EBEFF7"/>
<stop offset="1" stop-color="#B4B7C3"/>
</linearGradient>
<linearGradient id="paint19_linear_58_5" x1="411.201" y1="275.06" x2="411.387" y2="258.576" gradientUnits="userSpaceOnUse">
<stop stop-color="#2C3F63"/>
<stop offset="1" stop-color="#141A2E"/>
</linearGradient>
<linearGradient id="paint20_linear_58_5" x1="411.241" y1="271.775" x2="411.357" y2="261.065" gradientUnits="userSpaceOnUse">
<stop stop-color="#EBEFF7"/>
<stop offset="1" stop-color="#B4B7C3"/>
</linearGradient>
<linearGradient id="paint21_linear_58_5" x1="176.45" y1="224.898" x2="176.125" y2="194.549" gradientUnits="userSpaceOnUse">
<stop stop-color="#EBEFF7"/>
<stop offset="1" stop-color="#B4B7C3"/>
</linearGradient>
<radialGradient id="paint22_radial_58_5" cx="0" cy="0" r="1" gradientUnits="userSpaceOnUse" gradientTransform="translate(160.561 206.719) scale(8.86715 9.59436)">
<stop stop-color="#EBEFF7"/>
<stop offset="1" stop-color="#B4B7C3"/>
</radialGradient>
<radialGradient id="paint23_radial_58_5" cx="0" cy="0" r="1" gradientUnits="userSpaceOnUse" gradientTransform="translate(180.795 211.999) scale(7.3992 8.00603)">
<stop stop-color="#EBEFF7"/>
<stop offset="1" stop-color="#B4B7C3"/>
</radialGradient>
<linearGradient id="paint24_linear_58_5" x1="394.023" y1="224.898" x2="394.348" y2="194.549" gradientUnits="userSpaceOnUse">
<stop stop-color="#EBEFF7"/>
<stop offset="1" stop-color="#B4B7C3"/>
</linearGradient>
<radialGradient id="paint25_radial_58_5" cx="0" cy="0" r="1" gradientUnits="userSpaceOnUse" gradientTransform="translate(409.912 1.07304) rotate(180) scale(0.991851 1.07319)">
<stop stop-color="#EBEFF7"/>
<stop offset="1" stop-color="#B4B7C3"/>
</radialGradient>
<radialGradient id="paint26_radial_58_5" cx="0" cy="0" r="1" gradientUnits="userSpaceOnUse" gradientTransform="translate(389.678 211.999) rotate(180) scale(7.3992 8.00603)">
<stop stop-color="#EBEFF7"/>
<stop offset="1" stop-color="#B4B7C3"/>
</radialGradient>
<linearGradient id="paint27_linear_58_5" x1="326.418" y1="230.844" x2="215.828" y2="289.787" gradientUnits="userSpaceOnUse">
<stop stop-color="#EBEFF7"/>
<stop offset="1" stop-color="#B4B7C3"/>
</linearGradient>
<linearGradient id="paint28_linear_58_5" x1="285.236" y1="221.765" x2="285.236" y2="228.461" gradientUnits="userSpaceOnUse">
<stop stop-color="#EBEFF7"/>
<stop offset="1" stop-color="#B4B7C3"/>
</linearGradient>
<linearGradient id="paint29_linear_58_5" x1="326.16" y1="149.582" x2="326.555" y2="111.784" gradientUnits="userSpaceOnUse">
<stop stop-color="#2C3F63"/>
<stop offset="1" stop-color="#141A2E"/>
</linearGradient>
<linearGradient id="paint30_linear_58_5" x1="285.296" y1="210.11" x2="285.76" y2="167.87" gradientUnits="userSpaceOnUse">
<stop stop-color="#2C3F63"/>
<stop offset="1" stop-color="#010101"/>
</linearGradient>
<linearGradient id="paint31_linear_58_5" x1="417.311" y1="141.533" x2="417.311" y2="154.261" gradientUnits="userSpaceOnUse">
<stop stop-color="#2C3F63"/>
<stop offset="1" stop-color="#010101"/>
</linearGradient>
<linearGradient id="paint32_linear_58_5" x1="153.32" y1="141.533" x2="153.32" y2="154.261" gradientUnits="userSpaceOnUse">
<stop stop-color="#2C3F63"/>
<stop offset="1" stop-color="#010101"/>
</linearGradient>
<radialGradient id="paint33_radial_58_5" cx="0" cy="0" r="1" gradientUnits="userSpaceOnUse" gradientTransform="translate(180.795 211.999) scale(54.651 59.133)">
<stop stop-color="#F8E4BD"/>
<stop offset="0.13" stop-color="#C7B798"/>
<stop offset="0.3" stop-color="#8B806A"/>
<stop offset="0.47" stop-color="#5A5344"/>
<stop offset="0.63" stop-color="#332F27"/>
<stop offset="0.78" stop-color="#171512"/>
<stop offset="0.9" stop-color="#060605"/>
<stop offset="1" stop-color="#010101"/>
</radialGradient>
<radialGradient id="paint34_radial_58_5" cx="0" cy="0" r="1" gradientUnits="userSpaceOnUse" gradientTransform="translate(180.766 211.993) scale(30.9656 33.5051)">
<stop stop-color="#F8E4BD"/>
<stop offset="0.13" stop-color="#C7B798"/>
<stop offset="0.3" stop-color="#8B806A"/>
<stop offset="0.47" stop-color="#5A5344"/>
<stop offset="0.63" stop-color="#332F27"/>
<stop offset="0.78" stop-color="#171512"/>
<stop offset="0.9" stop-color="#060605"/>
<stop offset="1" stop-color="#010101"/>
</radialGradient>
<radialGradient id="paint35_radial_58_5" cx="0" cy="0" r="1" gradientUnits="userSpaceOnUse" gradientTransform="translate(389.678 1.07319) scale(0.991851 1.07319)">
<stop stop-color="#F8E4BD"/>
<stop offset="0.13" stop-color="#C7B798"/>
<stop offset="0.3" stop-color="#8B806A"/>
<stop offset="0.47" stop-color="#5A5344"/>
<stop offset="0.63" stop-color="#332F27"/>
<stop offset="0.78" stop-color="#171512"/>
<stop offset="0.9" stop-color="#060605"/>
<stop offset="1" stop-color="#010101"/>
</radialGradient>
<radialGradient id="paint36_radial_58_5" cx="0" cy="0" r="1" gradientUnits="userSpaceOnUse" gradientTransform="translate(389.667 211.99) scale(30.9656 33.5051)">
<stop stop-color="#F8E4BD"/>
<stop offset="0.13" stop-color="#C7B798"/>
<stop offset="0.3" stop-color="#8B806A"/>
<stop offset="0.47" stop-color="#5A5344"/>
<stop offset="0.63" stop-color="#332F27"/>
<stop offset="0.78" stop-color="#171512"/>
<stop offset="0.9" stop-color="#060605"/>
<stop offset="1" stop-color="#010101"/>
</radialGradient>
</defs>
</svg>
