<svg width="36" height="36" xmlns="http://www.w3.org/2000/svg" xmlns:xlink="http://www.w3.org/1999/xlink" xml:space="preserve" overflow="hidden"><defs><clipPath id="clip0"><rect x="100" y="26" width="36" height="36"/></clipPath><radialGradient cx="0" cy="0" r="1" gradientUnits="userSpaceOnUse" spreadMethod="pad" id="fill1" gradientTransform="matrix(-8.77515 23.4352 -40.8759 -15.3056 113.064 33.9784)"><stop offset="0" stop-color="#AE7FE2"/><stop offset="0.06441" stop-color="#AE7FE2"/><stop offset="1" stop-color="#0078D4"/></radialGradient><linearGradient x1="113.134" y1="54.401" x2="109.563" y2="48.2256" gradientUnits="userSpaceOnUse" spreadMethod="pad" id="fill2"><stop offset="0" stop-color="#114A8B"/><stop offset="1" stop-color="#0078D4" stop-opacity="0"/></linearGradient><radialGradient cx="0" cy="0" r="1" gradientUnits="userSpaceOnUse" spreadMethod="pad" id="fill3" gradientTransform="matrix(23.0399 -3.38874 2.23849 15.2194 107.82 53.2633)"><stop offset="0" stop-color="#D59DFF"/><stop offset="0.133928" stop-color="#D59DFF"/><stop offset="1" stop-color="#5E438F"/></radialGradient><linearGradient x1="130.265" y1="45.0326" x2="126.439" y2="50.5187" gradientUnits="userSpaceOnUse" spreadMethod="pad" id="fill4"><stop offset="0" stop-color="#493474"/><stop offset="1" stop-color="#8C66BA" stop-opacity="0"/></linearGradient><radialGradient cx="0" cy="0" r="1" gradientUnits="userSpaceOnUse" spreadMethod="pad" id="fill5" gradientTransform="matrix(-18.1187 -4.59416 7.73385 -30.5012 130.791 45.878)"><stop offset="0" stop-color="#50E6FF"/><stop offset="0.0584996" stop-color="#50E6FF"/><stop offset="1" stop-color="#436DCD"/></radialGradient><linearGradient x1="112.732" y1="28.2924" x2="118.365" y2="28.2924" gradientUnits="userSpaceOnUse" spreadMethod="pad" id="fill6"><stop offset="0" stop-color="#2D3F80"/><stop offset="1" stop-color="#436DCD" stop-opacity="0"/></linearGradient></defs><g clip-path="url(#clip0)" transform="translate(-100 -26)"><path d="M115.063 28.269 114.895 28.371C114.627 28.5331 114.374 28.7144 114.138 28.9125L114.624 28.5706 118.75 28.5706 119.5 34.2496 115.75 37.9996 112 40.6062 112 43.6118C112 45.7111 113.097 47.6577 114.893 48.7447L118.841 51.1343 110.5 55.9998 108.891 55.9998 105.893 54.1849C104.097 53.0979 103 51.1512 103 49.052L103 38.9451C103 36.8451 104.098 34.898 105.895 33.8112L114.895 28.3673C114.95 28.3336 115.007 28.3008 115.063 28.269Z" fill="url(#fill1)"/><path d="M115.063 28.269 114.895 28.371C114.627 28.5331 114.374 28.7144 114.138 28.9125L114.624 28.5706 118.75 28.5706 119.5 34.2496 115.75 37.9996 112 40.6062 112 43.6118C112 45.7111 113.097 47.6577 114.893 48.7447L118.841 51.1343 110.5 55.9998 108.891 55.9998 105.893 54.1849C104.097 53.0979 103 51.1512 103 49.052L103 38.9451C103 36.8451 104.098 34.898 105.895 33.8112L114.895 28.3673C114.95 28.3336 115.007 28.3008 115.063 28.269Z" fill="url(#fill2)"/><path d="M123.998 40.25 123.998 43.6102C123.998 45.7095 122.901 47.6561 121.105 48.7431L112.105 54.1908C110.264 55.3053 107.973 55.3455 106.1 54.3115L114.891 59.633C116.801 60.7891 119.195 60.7891 121.105 59.633L130.105 54.1852C131.901 53.0982 132.998 51.1516 132.998 49.0523L132.998 46.625 132.248 45.5 123.998 40.25Z" fill="url(#fill3)"/><path d="M123.998 40.25 123.998 43.6102C123.998 45.7095 122.901 47.6561 121.105 48.7431L112.105 54.1908C110.264 55.3053 107.973 55.3455 106.1 54.3115L114.891 59.633C116.801 60.7891 119.195 60.7891 121.105 59.633L130.105 54.1852C131.901 53.0982 132.998 51.1516 132.998 49.0523L132.998 46.625 132.248 45.5 123.998 40.25Z" fill="url(#fill4)"/><path d="M130.105 33.8115 121.105 28.3676C119.255 27.2485 116.952 27.2139 115.073 28.2636L114.895 28.3717C113.098 29.4586 112 31.4057 112 33.5056L112 40.6185 114.895 38.8676C116.804 37.7128 119.196 37.7128 121.105 38.8676L130.105 44.3115C131.846 45.3644 132.931 47.2245 132.997 49.2489 132.999 49.1835 133 49.118 133 49.0523L133 38.9454C133 36.8455 131.902 34.8983 130.105 33.8115Z" fill="url(#fill5)"/><path d="M130.105 33.8115 121.105 28.3676C119.255 27.2485 116.952 27.2139 115.073 28.2636L114.895 28.3717C113.098 29.4586 112 31.4057 112 33.5056L112 40.6185 114.895 38.8676C116.804 37.7128 119.196 37.7128 121.105 38.8676L130.105 44.3115C131.846 45.3644 132.931 47.2245 132.997 49.2489 132.999 49.1835 133 49.118 133 49.0523L133 38.9454C133 36.8455 131.902 34.8983 130.105 33.8115Z" fill="url(#fill6)"/></g></svg>