<svg width="22" height="23" xmlns="http://www.w3.org/2000/svg" xmlns:xlink="http://www.w3.org/1999/xlink" xml:space="preserve" overflow="hidden"><defs><clipPath id="clip0"><rect x="246" y="619" width="22" height="23"/></clipPath><radialGradient cx="13428.8" cy="3518.86" r="56.67" gradientUnits="userSpaceOnUse" spreadMethod="pad" id="fill1" gradientTransform="matrix(0.183333 0 0 0.183333 -2450.96 -634.126)"><stop offset="0" stop-color="#5EA0EF"/><stop offset="0.18" stop-color="#5EA0EF"/><stop offset="1" stop-color="#0078D4"/></radialGradient><linearGradient x1="5.37778" y1="14.0311" x2="5.34111" y2="9.20333" gradientUnits="userSpaceOnUse" spreadMethod="pad" id="fill2"><stop offset="0" stop-color="#CCCCCC"/><stop offset="1" stop-color="#FCFCFC"/></linearGradient><linearGradient x1="12.3811" y1="18.8833" x2="12.3811" y2="14.5444" gradientUnits="userSpaceOnUse" spreadMethod="pad" id="fill3"><stop offset="0" stop-color="#CCCCCC"/><stop offset="1" stop-color="#FCFCFC"/></linearGradient><linearGradient x1="17.3311" y1="13.6278" x2="17.3311" y2="9.02" gradientUnits="userSpaceOnUse" spreadMethod="pad" id="fill4"><stop offset="0" stop-color="#CCCCCC"/><stop offset="1" stop-color="#FCFCFC"/></linearGradient><linearGradient x1="5.37778" y1="14.0311" x2="5.34111" y2="9.20333" gradientUnits="userSpaceOnUse" spreadMethod="pad" id="fill5"><stop offset="0" stop-color="#CCCCCC"/><stop offset="1" stop-color="#FCFCFC"/></linearGradient><linearGradient x1="12.3811" y1="18.8833" x2="12.3811" y2="14.5444" gradientUnits="userSpaceOnUse" spreadMethod="pad" id="fill6"><stop offset="0" stop-color="#CCCCCC"/><stop offset="1" stop-color="#FCFCFC"/></linearGradient></defs><g clip-path="url(#clip0)" transform="translate(-246 -619)"><path d="M17.3678 19.2133C12.8316 22.7302 6.30349 21.9039 2.78667 17.3678-0.73016 12.8316 0.0961235 6.30349 4.63222 2.78667L4.74222 2.71333C9.34015-0.718778 15.8498 0.226305 19.2819 4.82423 22.6562 9.34481 21.8066 15.7321 17.3678 19.2133" fill="url(#fill1)" transform="matrix(1 0 0 1.04545 246 619)"/><path d="M8.17667 8.83667C11.1153 6.04184 15.0113 4.47643 19.0667 4.46111 18.5339 3.80213 17.9223 3.21103 17.2456 2.70111 15.2726 2.82282 13.3346 3.27738 11.5133 4.04556 9.63822 4.851 7.94284 6.02279 6.52667 7.49222 7.20733 7.75058 7.78617 8.22221 8.17667 8.83667Z" fill="#FFFFFF" fill-opacity="0.6" transform="matrix(1 0 0 1.04545 246 619)"/><path d="M3.03111 13.0167C2.61122 14.0564 2.27206 15.127 2.01667 16.2189 2.24233 16.6112 2.49555 16.9869 2.77444 17.3433 2.99444 17.6244 3.20222 17.8811 3.44667 18.1378 3.74197 16.6831 4.18424 15.262 4.76667 13.8967 4.11427 13.7802 3.51063 13.4741 3.03111 13.0167Z" fill="#FFFFFF" fill-opacity="0.6" transform="matrix(1 0 0 1.04545 246 619)"/><path d="M4.22889 7.46778C3.79758 6.3103 3.51423 5.10296 3.38556 3.87444 2.87265 4.41314 2.42169 5.00758 2.04111 5.64667 2.17908 6.63647 2.41239 7.61063 2.73778 8.55556 3.12075 8.05803 3.63818 7.68055 4.22889 7.46778Z" fill="#F2F2F2" fill-opacity="0.55" transform="matrix(1 0 0 1.04545 246 619)"/><path d="M8.69 10.6089C8.69 12.4517 7.19612 13.9456 5.35333 13.9456 3.51054 13.9456 2.01667 12.4517 2.01667 10.6089 2.01667 8.7661 3.51054 7.27222 5.35333 7.27222 7.19612 7.27222 8.69 8.7661 8.69 10.6089Z" fill="url(#fill2)" transform="matrix(1 0 0 1.04545 246 619)"/><path d="M10.2178 16.7078C10.2187 16.1223 10.4568 15.5623 10.8778 15.1556 9.75099 14.538 8.71117 13.7735 7.78556 12.8822 7.3019 13.4055 6.66395 13.7609 5.96444 13.8967 6.51583 14.4611 7.10819 14.984 7.73667 15.4611 8.51922 16.0521 9.35853 16.5638 10.2422 16.9889 10.228 16.8958 10.2199 16.8019 10.2178 16.7078Z" fill="#F2F2F2" fill-opacity="0.55" transform="matrix(1 0 0 1.04545 246 619)"/><path d="M17.9178 16.9644C16.782 16.9652 15.6499 16.8339 14.5444 16.5733 14.5504 16.6179 14.5504 16.6632 14.5444 16.7078 14.5462 17.2756 14.3219 17.821 13.9211 18.2233 15.2966 18.4959 16.7009 18.5944 18.1011 18.5167 18.6443 18.0255 19.1319 17.4763 19.5556 16.8789 19.0118 16.9393 18.4648 16.9679 17.9178 16.9644Z" fill="#F2F2F2" fill-opacity="0.55" transform="matrix(1 0 0 1.04545 246 619)"/><path d="M14.5567 16.7078C14.5567 17.9093 13.5826 18.8833 12.3811 18.8833 11.1796 18.8833 10.2056 17.9093 10.2056 16.7078 10.2056 15.5063 11.1796 14.5322 12.3811 14.5322 13.5826 14.5322 14.5567 15.5063 14.5567 16.7078Z" fill="url(#fill3)" transform="matrix(1 0 0 1.04545 246 619)"/><path d="M15.0578 10.9144C15.1657 10.4364 15.4276 10.0069 15.8033 9.69222 13.7908 8.22919 11.9608 6.53043 10.3522 4.63222 9.41481 3.53138 8.59551 2.33519 7.90778 1.06333 7.45125 1.2002 7.00588 1.37181 6.57556 1.57667 7.31155 2.96152 8.19241 4.26436 9.20333 5.46333 10.9215 7.51582 12.8881 9.34688 15.0578 10.9144Z" fill="#F2F2F2" fill-opacity="0.7" transform="matrix(1 0 0 1.04545 246 619)"/><path d="M19.6411 11.33C19.6411 12.6058 18.6069 13.64 17.3311 13.64 16.0553 13.64 15.0211 12.6058 15.0211 11.33 15.0211 10.0542 16.0553 9.02 17.3311 9.02 18.6069 9.02 19.6411 10.0542 19.6411 11.33Z" fill="url(#fill4)" transform="matrix(1 0 0 1.04545 246 619)"/><path d="M21.2056 12.8822 20.7778 12.6744 20.7778 12.6744 20.4111 12.4789 20.3378 12.4789 20.02 12.2222 19.9344 12.2222 19.5556 11.9778C19.4243 12.4278 19.1497 12.8227 18.7733 13.1022 18.92 13.2 19.0789 13.2856 19.2378 13.3711L19.3356 13.4322 19.7633 13.6644 19.7633 13.6644 20.8144 14.2144 20.8144 14.2144C20.9626 13.7705 21.081 13.3173 21.1689 12.8578Z" fill="#F2F2F2" fill-opacity="0.55" transform="matrix(1 0 0 1.04545 246 619)"/><path d="M8.69 10.6089C8.69 12.4517 7.19612 13.9456 5.35333 13.9456 3.51054 13.9456 2.01667 12.4517 2.01667 10.6089 2.01667 8.7661 3.51054 7.27222 5.35333 7.27222 7.19612 7.27222 8.69 8.7661 8.69 10.6089Z" fill="url(#fill5)" transform="matrix(1 0 0 1.04545 246 619)"/><path d="M14.5567 16.7078C14.5567 17.9093 13.5826 18.8833 12.3811 18.8833 11.1796 18.8833 10.2056 17.9093 10.2056 16.7078 10.2056 15.5063 11.1796 14.5322 12.3811 14.5322 13.5826 14.5322 14.5567 15.5063 14.5567 16.7078Z" fill="url(#fill6)" transform="matrix(1 0 0 1.04545 246 619)"/></g></svg>