<svg width="516" height="993" viewBox="0 0 516 993" fill="none" xmlns="http://www.w3.org/2000/svg">
<g clip-path="url(#clip0_58_59)">
<path d="M334.988 106.901C318.818 165.848 339.499 231.849 315.883 288.18C293.437 341.733 237.239 371.996 183.568 393.923C129.924 415.851 71.9054 435.6 34.6483 480.109C-13.1255 537.148 -11.2776 629.681 38.7246 684.732C71.1989 720.497 120.603 741.689 141.61 785.245C159.79 822.917 151.99 868.489 166.638 907.686C191.177 973.47 272.92 1001.55 342.162 990.712C411.404 979.871 472.14 940.346 533.665 906.706C595.189 873.065 664.594 843.919 733.538 856.504C797.644 868.216 854.793 915.123 919.823 910.955C961.999 908.231 1000.59 883.362 1027.44 850.62C1054.29 817.878 1070.67 777.809 1083.23 737.358C1150.27 521.458 1112.93 275.541 984.826 89.4138C959.471 52.5588 929.606 17.0113 889.767 -3.22757C849.412 -23.7389 802.562 -26.6807 757.343 -25.8908C709.841 -25.0464 662.393 -20.4974 615.598 -12.3255C575.949 -5.40672 541.844 6.9055 502.142 0.667672C430.671 -10.5822 354.472 35.8883 334.988 106.901Z" fill="#EDF4FC"/>
</g>
<defs>
<clipPath id="clip0_58_59">
<rect width="1116" height="1019" fill="white" transform="translate(0 -26)"/>
</clipPath>
</defs>
</svg>
