<svg xmlns="http://www.w3.org/2000/svg" xmlns:xlink="http://www.w3.org/1999/xlink" viewBox="0 0 109.167 97.125" fill="#fff" fill-rule="evenodd" stroke="#000" stroke-linecap="round" stroke-linejoin="round"><use xlink:href="#A" x="2.083" y="2.083"/><symbol id="A" overflow="visible"><g stroke="none" fill-rule="nonzero"><use xlink:href="#C" fill="#d22f27"/><g fill="#d0cfce"><use xlink:href="#D"/><path d="M75.938 93.771H28.23c-9.796 0-17.812-8.014-17.812-17.812V28.251c0-9.796 8.015-17.812 17.813-17.812h47.708c9.796 0 17.813 8.015 17.813 17.813v47.708c0 9.796-8.014 17.813-17.812 17.813z"/></g><path d="M49.996 93.766h27.679c8.271 0 15.033-8.015 15.033-17.812V28.246c0-9.796-6.765-17.812-15.033-17.812h-4.902" fill="#9b9b9a"/><use xlink:href="#E"/><use xlink:href="#E" x="-36.46"/><use xlink:href="#F"/></g><g fill="none" stroke-width="4.167"><use xlink:href="#C"/><path d="M75.938 93.745H28.23c-9.796 0-17.812-8.014-17.812-17.812V28.225c0-9.796 8.015-17.812 17.813-17.812h47.708c9.796 0 17.813 8.015 17.813 17.813v47.708c0 9.796-8.014 17.813-17.812 17.813z"/><use xlink:href="#E"/><use xlink:href="#E" x="-36.46"/><use xlink:href="#F" stroke-linejoin="miter"/><use xlink:href="#D"/><path d="M35.417 60.412v14.583m10.417-14.583v14.583M56.25 60.412v14.583m10.417-14.583v14.583"/></g></symbol><defs ><path id="C" d="M47.917 10.438V5.208A5.21 5.21 0 0 1 53.125 0a5.21 5.21 0 0 1 5.208 5.208v5.208"/><path id="D" d="M5.208 62.496A5.21 5.21 0 0 1 0 57.288V40.621a5.21 5.21 0 0 1 5.208-5.208 5.21 5.21 0 0 1 5.208 5.208v16.667a5.21 5.21 0 0 1-5.208 5.208zm93.75 0a5.21 5.21 0 0 0 5.208-5.208V40.621a5.21 5.21 0 0 0-5.208-5.208 5.21 5.21 0 0 0-5.208 5.208v16.667a5.21 5.21 0 0 0 5.208 5.208z"/><path id="E" d="M64.585 37.502a5.89 5.89 0 1 1 11.808 0 5.89 5.89 0 0 1-11.808 0z"/><path id="F" d="M69.792 76.038H34.375a8.36 8.36 0 0 1-8.333-8.333 8.36 8.36 0 0 1 8.333-8.333h35.417a8.36 8.36 0 0 1 8.333 8.333 8.36 8.36 0 0 1-8.333 8.333z"/></defs></svg>