<svg width="34" height="34" xmlns="http://www.w3.org/2000/svg" xmlns:xlink="http://www.w3.org/1999/xlink" xml:space="preserve" overflow="hidden"><defs><clipPath id="clip0"><rect x="231" y="392" width="34" height="34"/></clipPath><linearGradient x1="235.124" y1="400.194" x2="245.293" y2="417.806" gradientUnits="userSpaceOnUse" spreadMethod="pad" id="fill1"><stop offset="0" stop-color="#058F92"/><stop offset="0.5" stop-color="#038489"/><stop offset="1" stop-color="#026D71"/></linearGradient></defs><g clip-path="url(#clip0)" transform="translate(-231 -392)"><path d="M256.5 402.625C256.5 407.319 252.694 411.125 248 411.125 243.306 411.125 239.5 407.319 239.5 402.625 239.5 397.931 243.306 394.125 248 394.125 252.694 394.125 256.5 397.931 256.5 402.625Z" fill="#036C70"/><path d="M262.875 410.417C262.875 414.72 259.387 418.208 255.083 418.208 250.78 418.208 247.292 414.72 247.292 410.417 247.292 406.113 250.78 402.625 255.083 402.625 259.387 402.625 262.875 406.113 262.875 410.417Z" fill="#1A9BA1"/><path d="M255.083 417.854C255.083 421.179 252.388 423.875 249.062 423.875 245.737 423.875 243.042 421.179 243.042 417.854 243.042 414.529 245.737 411.833 249.062 411.833 252.388 411.833 255.083 414.529 255.083 417.854Z" fill="#37C6D0"/><path d="M249.417 401.796 249.417 416.912C249.413 417.437 249.095 417.909 248.609 418.109 248.455 418.175 248.288 418.208 248.12 418.208L243.049 418.208C243.042 418.088 243.042 417.975 243.042 417.854 243.039 417.736 243.044 417.618 243.056 417.5 243.185 415.236 244.58 413.238 246.661 412.336L246.661 411.019C242.03 410.285 238.871 405.936 239.605 401.304 239.61 401.272 239.615 401.24 239.62 401.208 239.656 400.969 239.705 400.733 239.769 400.5L248.12 400.5C248.835 400.503 249.414 401.081 249.417 401.796Z" fill="#000000" fill-opacity="0.1"/><path d="M247.412 401.208 239.62 401.208C238.833 405.831 241.943 410.217 246.566 411.004 246.706 411.028 246.846 411.048 246.987 411.065 244.791 412.106 243.191 415.063 243.055 417.5 243.043 417.618 243.039 417.736 243.041 417.854 243.041 417.975 243.041 418.088 243.048 418.208 243.061 418.446 243.092 418.683 243.14 418.917L247.411 418.917C247.937 418.913 248.408 418.595 248.608 418.109 248.674 417.955 248.708 417.788 248.708 417.62L248.708 402.505C248.705 401.79 248.127 401.211 247.412 401.208Z" fill="#000000" fill-opacity="0.2"/><path d="M247.412 401.208 239.62 401.208C238.833 405.832 241.943 410.217 246.567 411.004 246.661 411.02 246.756 411.035 246.851 411.048 244.726 412.164 243.189 415.114 243.056 417.5L247.412 417.5C248.126 417.495 248.703 416.917 248.708 416.204L248.708 402.505C248.706 401.79 248.127 401.211 247.412 401.208Z" fill="#000000" fill-opacity="0.2"/><path d="M246.704 401.208 239.62 401.208C238.877 405.573 241.612 409.776 245.903 410.864 244.278 412.721 243.282 415.043 243.056 417.5L246.704 417.5C247.419 417.497 247.997 416.919 248 416.204L248 402.505C248 401.789 247.42 401.209 246.704 401.208Z" fill="#000000" fill-opacity="0.2"/><path d="M246.702 401.208C247.419 401.208 248 401.79 248 402.507L248 415.493C248 416.21 247.419 416.792 246.702 416.792L233.715 416.792C232.998 416.792 232.417 416.21 232.417 415.493L232.417 402.507C232.417 401.79 232.998 401.208 233.715 401.208Z" fill="url(#fill1)"/><path d="M238.216 408.841C237.912 408.64 237.657 408.371 237.473 408.056 237.294 407.727 237.205 407.356 237.214 406.981 237.198 406.474 237.369 405.979 237.695 405.589 238.037 405.2 238.48 404.911 238.974 404.755 239.538 404.569 240.129 404.478 240.722 404.484 241.502 404.456 242.281 404.565 243.024 404.807L243.024 406.436C242.701 406.24 242.35 406.097 241.983 406.011 241.584 405.913 241.175 405.864 240.765 405.865 240.332 405.849 239.903 405.94 239.513 406.13 239.213 406.259 239.018 406.555 239.018 406.882 239.016 407.081 239.093 407.272 239.23 407.415 239.393 407.583 239.585 407.721 239.797 407.82 240.033 407.938 240.387 408.094 240.859 408.289 240.911 408.305 240.962 408.326 241.011 408.35 241.476 408.531 241.924 408.753 242.351 409.011 242.674 409.21 242.946 409.483 243.143 409.808 243.345 410.176 243.443 410.593 243.426 411.012 243.449 411.533 243.29 412.046 242.976 412.462 242.663 412.844 242.244 413.126 241.772 413.272 241.216 413.446 240.637 413.53 240.055 413.521 239.533 413.524 239.011 413.481 238.496 413.394 238.062 413.323 237.637 413.198 237.233 413.023L237.233 411.305C237.62 411.581 238.051 411.787 238.508 411.914 238.964 412.056 239.438 412.132 239.915 412.139 240.357 412.167 240.798 412.074 241.19 411.869 241.465 411.714 241.632 411.42 241.625 411.104 241.627 410.885 241.54 410.674 241.384 410.519 241.19 410.329 240.966 410.173 240.72 410.057 240.437 409.915 240.02 409.728 239.469 409.497 239.03 409.32 238.611 409.101 238.216 408.841Z" fill="#FFFFFF"/></g></svg>