<svg xmlns="http://www.w3.org/2000/svg" xmlns:xlink="http://www.w3.org/1999/xlink" viewBox="0 0 117 81" fill="#fff" fill-rule="evenodd" stroke="#000" stroke-linecap="round" stroke-linejoin="round"><use xlink:href="#A" x=".5" y=".5"/><symbol id="A" overflow="visible"><path d="M107.564 55.246s9.742-11.772 2.3-24.013c-8.975-14.78-24.399-6.634-24.399-6.634S82.202-6.291 46.694 1.16c-9.11 1.919-14.913 6.362-18.566 11.576 5.397.287 10.403 1.179 14.387 2.63 5.172 1.889 7.757 4.156 8.539 6.151v19.253h15.469V29.389l3.157 2.463 18.762 14.613 1.969 1.526-1.939 1.587L69.71 64.676l-3.187 2.584V55.292H51.053v15.747c0 1.043-.286 2.252-1.218 3.506h51.129s12.538-.181 13.831-8.221c1.654-10.186-7.231-11.077-7.231-11.077zM41.011 16.922l-1.172-.363c-.181-.045-.346-.106-.511-.151l.27.091c-4.149-1.179-9.351-1.874-15.003-1.889C11.14 14.609.105 18.554 0 23.465v47.543c0 4.896 10.794 8.886 24.294 8.931V80h.06c.045 0 .196-.061.196-.061V80h.045c13.53 0 24.504-4.05 24.504-8.962V53.327h19.378v9.823l18.762-15.158-18.762-14.613v9.339H49.099V23.465c-.045-1.95-1.804-3.748-4.765-5.214-.977-.484-2.09-.922-3.322-1.33zm-35.9 6.105c0-3.264 8.734-5.909 19.483-5.909 10.749.03 19.483 2.675 19.483 5.909 0 .136-.015.287-.045.438-.346 1.436-2.36 2.69-5.442 3.672-.03 0-.06.03-.075.03a10.08 10.08 0 0 0-.541.151c-.045.015-.105.015-.12.045l-.526.151c-.06.015-.12.015-.195.045-.166.045-.316.076-.481.121-.075.03-.15.03-.226.06-.15.015-.316.06-.496.091a.78.78 0 0 1-.271.045l-.466.106c-.09.015-.195.045-.286.045-.15.03-.316.045-.466.076-.12.03-.225.045-.346.045-.15.03-.301.061-.466.076a1.5 1.5 0 0 1-.376.045l-.436.075c-.12.03-.271.03-.391.061-.15.015-.301.045-.436.045-.15.015-.271.015-.421.045s-.301.03-.451.045c-.135.03-.286.03-.436.06-.15.015-.3.015-.436.045-.15.03-.331.03-.466.045-.15 0-.3.03-.451.03-.166 0-.316.015-.481.015-.15 0-.301.03-.451.03-.165 0-.346.03-.511.03-.15 0-.271.015-.421.015-.195 0-.361.03-.556.03-.135 0-.256 0-.406.03-.21 0-.406 0-.631.015h-3.247c-.165 0-.316 0-.481-.015-.15 0-.316 0-.466-.03-.18 0-.316-.03-.496-.03-.15 0-.301-.015-.436-.015-.18 0-.331-.03-.496-.03-.151 0-.301-.03-.436-.03-.18 0-.331-.015-.496-.045-.15 0-.271-.015-.421-.015-.165-.03-.316-.03-.466-.06-.15-.015-.271-.015-.421-.045-.135-.03-.286-.03-.436-.045h-.03c-.12-.03-.241-.03-.391-.06-.12-.015-.27-.015-.391-.045h-.09c-.135-.015-.256-.015-.376-.045s-.225-.03-.346-.045c-.045 0-.09-.03-.135-.03-.105-.03-.225-.03-.331-.045-.09-.03-.196-.03-.286-.045-.075 0-.151-.03-.196-.03-.105-.03-.195-.03-.301-.045-.075-.03-.165-.03-.24-.06-.075-.015-.18-.015-.256-.045-.09-.03-.165-.03-.271-.045-.06-.03-.135-.03-.21-.045-.105-.03-.195-.061-.301-.061-.075-.015-.15-.015-.225-.045-.06-.03-.12-.03-.196-.045-.09-.03-.211-.045-.316-.076-.045-.03-.12-.03-.165-.045-.075-.03-.12-.03-.195-.061-.135-.015-.255-.045-.346-.075-.03 0-.075-.015-.105-.015-.075-.03-.15-.045-.211-.045-.135-.03-.255-.075-.376-.106-.09-.03-.165-.045-.271-.076-.12-.03-.241-.075-.361-.091-.075-.03-.18-.061-.255-.076-.12-.06-.241-.076-.361-.121l-.225-.076c-.12-.06-.241-.075-.346-.136l-.211-.061c-.135-.06-.226-.106-.346-.136-.075-.015-.12-.045-.195-.06-.105-.061-.225-.106-.331-.151-.045-.03-.12-.061-.165-.076l-.301-.151c-.045-.03-.09-.045-.165-.076l-.436-.227c-.105-.045-.18-.091-.271-.136-.06-.03-.105-.06-.135-.076-.06-.06-.165-.106-.24-.181-.045-.015-.075-.045-.12-.091-.075-.045-.15-.106-.226-.181-.045-.015-.075-.045-.09-.091-.075-.045-.12-.121-.195-.181l-.271-.272c-.03-.015-.06-.045-.075-.091a1.9 1.9 0 0 1-.15-.181c-.03-.015-.045-.061-.075-.091-.045-.045-.075-.121-.12-.181-.03-.015-.03-.061-.045-.091-.03-.045-.075-.121-.105-.166-.015-.03-.015-.076-.015-.106l-.075-.227c.015-.197 0-.348 0-.484z" fill="#0078d7" stroke="none"/></symbol></svg>