<svg width="30" height="30" xmlns="http://www.w3.org/2000/svg" xmlns:xlink="http://www.w3.org/1999/xlink" xml:space="preserve" overflow="hidden"><defs><clipPath id="clip0"><rect x="747" y="586" width="30" height="30"/></clipPath><linearGradient x1="762" y1="594.967" x2="762" y2="586" gradientUnits="userSpaceOnUse" spreadMethod="pad" id="fill1"><stop offset="0" stop-color="#005BA1"/><stop offset="0.199" stop-color="#005BA1"/><stop offset="1" stop-color="#0078D4"/></linearGradient><linearGradient x1="762" y1="607.188" x2="762" y2="594.812" gradientUnits="userSpaceOnUse" spreadMethod="pad" id="fill2"><stop offset="0" stop-color="#198AB3"/><stop offset="0.172" stop-color="#32BEDD"/><stop offset="0.5" stop-color="#50E6FF"/><stop offset="0.5" stop-color="#4FE4FD"/><stop offset="0.5" stop-color="#4BDDF8"/><stop offset="0.5" stop-color="#44D2EE"/><stop offset="0.5" stop-color="#3AC1E0"/><stop offset="0.5" stop-color="#2DABCE"/><stop offset="0.5" stop-color="#1D90B8"/><stop offset="0.5" stop-color="#198AB3"/><stop offset="0.662" stop-color="#32BEDD"/><stop offset="0.975" stop-color="#50E6FF"/><stop offset="1" stop-color="#50E6FF"/></linearGradient></defs><g clip-path="url(#clip0)" transform="translate(-747 -586)"><path d="M762 586 748.917 593.483 748.917 608.433 762 616 775.083 608.517 775.083 593.517ZM772.667 606.95 762 613.117 751.333 607.015 751.333 594.967 762 588.8 772.667 594.983Z" fill="#0078D4"/><path d="M762 586 762 586 748.917 593.483 751.333 594.967 762 588.8 762 588.8 772.667 594.967 775.083 593.483 762 586Z" fill="url(#fill1)"/><path d="M768.233 603.458C768.106 603.249 767.918 603.083 767.695 602.982 766.318 599.975 763.506 597.874 760.232 597.405L771.027 591.167 768.517 589.727 756.223 596.833C755.625 597.178 755.419 597.942 755.764 598.54 755.987 598.929 756.402 599.168 756.85 599.167 756.901 599.157 756.951 599.144 757 599.128L757.208 600C760.434 599.239 763.762 600.779 765.27 603.73L753.022 610.808 755.522 612.252 767.777 605.167C767.94 605.069 768.078 604.934 768.18 604.773L768.305 604.743C768.293 604.695 768.275 604.652 768.263 604.603 768.443 604.24 768.432 603.812 768.233 603.458Z" fill="#50E6FF"/><path d="M767.152 601.022C765.449 601.022 764.068 602.402 764.068 604.105 764.068 605.808 765.449 607.188 767.152 607.188 768.854 607.188 770.235 605.808 770.235 604.105 770.235 602.402 768.854 601.022 767.152 601.022ZM756.848 594.778C755.145 594.778 753.765 596.159 753.765 597.862 753.765 599.565 755.145 600.945 756.848 600.945 758.551 600.945 759.932 599.565 759.932 597.862 759.932 596.159 758.551 594.778 756.848 594.778Z" fill="url(#fill2)"/></g></svg>